<?xml version="1.0" encoding="UTF-8"?>
<!DOCTYPE svg PUBLIC "-//W3C//DTD SVG 1.1//EN" "http://www.w3.org/Graphics/SVG/1.1/DTD/svg11.dtd">
<svg xmlns="http://www.w3.org/2000/svg" version="1.1" width="55px" height="21px" style="shape-rendering:geometricPrecision; text-rendering:geometricPrecision; image-rendering:optimizeQuality; fill-rule:evenodd; clip-rule:evenodd" xmlns:xlink="http://www.w3.org/1999/xlink">
<g><path style="opacity:0.888" fill="#0ea349" d="M -0.5,0.5 C 0.833333,0.5 2.16667,0.5 3.5,0.5C 3.5,5.5 3.5,10.5 3.5,15.5C 8.5,15.5 13.5,15.5 18.5,15.5C 18.5,17.1667 18.5,18.8333 18.5,20.5C 12.1667,20.5 5.83333,20.5 -0.5,20.5C -0.5,13.8333 -0.5,7.16667 -0.5,0.5 Z"/></g>
<g><path style="opacity:0.837" fill="#0fa349" d="M 15.5,-0.5 C 15.8333,-0.5 16.1667,-0.5 16.5,-0.5C 18.1696,2.00158 20.3363,4.00158 23,5.5C 25.3353,3.59981 27.502,1.59981 29.5,-0.5C 30.1667,-0.5 30.8333,-0.5 31.5,-0.5C 31.5106,1.01739 32.1772,2.18405 33.5,3C 31.0934,5.28476 28.5934,7.45143 26,9.5C 25.5017,12.8168 25.335,16.1501 25.5,19.5C 23.8333,19.5 22.1667,19.5 20.5,19.5C 20.665,16.1501 20.4983,12.8168 20,9.5C 17.2047,7.70685 14.7047,5.54018 12.5,3C 13.7101,1.9609 14.7101,0.794229 15.5,-0.5 Z"/></g>
<g><path style="opacity:0.862" fill="#0ea349" d="M 35.5,-0.5 C 41.5,-0.5 47.5,-0.5 53.5,-0.5C 53.5,0.166667 53.8333,0.5 54.5,0.5C 54.5,1.83333 54.5,3.16667 54.5,4.5C 52.1667,4.5 49.8333,4.5 47.5,4.5C 47.5,9.83333 47.5,15.1667 47.5,20.5C 45.8333,20.5 44.1667,20.5 42.5,20.5C 42.5,15.1667 42.5,9.83333 42.5,4.5C 40.1667,4.5 37.8333,4.5 35.5,4.5C 35.5,2.83333 35.5,1.16667 35.5,-0.5 Z"/></g>
</svg>
